<mxfile host="app.diagrams.net" agent="Mozilla/5.0 (Windows NT 10.0; Win64; x64; rv:135.0) Gecko/20100101 Firefox/135.0" version="26.0.11">
  <diagram id="6a731a19-8d31-9384-78a2-239565b7b9f0" name="Page-1">
    <mxGraphModel dx="1911" dy="1326" grid="1" gridSize="10" guides="1" tooltips="1" connect="1" arrows="1" fold="1" page="1" pageScale="1" pageWidth="827" pageHeight="1169" background="none" math="0" shadow="0">
      <root>
        <mxCell id="0" />
        <mxCell id="1" parent="0" />
        <mxCell id="ikaSYUK2sFAXNSiubt6e-2296" value="" style="rounded=1;whiteSpace=wrap;html=1;strokeColor=none;fillColor=#BAC8D3;fontSize=24;fontColor=#23445D;align=center;opacity=60;arcSize=12;" vertex="1" parent="1">
          <mxGeometry x="667" y="760" width="430" height="530" as="geometry" />
        </mxCell>
        <mxCell id="ikaSYUK2sFAXNSiubt6e-2288" value="" style="rounded=1;whiteSpace=wrap;html=1;strokeColor=none;fillColor=#BAC8D3;fontSize=24;fontColor=#23445D;align=center;opacity=60;arcSize=12;" vertex="1" parent="1">
          <mxGeometry x="27" y="760" width="430" height="530" as="geometry" />
        </mxCell>
        <mxCell id="ikaSYUK2sFAXNSiubt6e-2286" value="" style="rounded=1;whiteSpace=wrap;html=1;strokeColor=none;fillColor=#BAC8D3;fontSize=24;fontColor=#23445D;align=center;opacity=60;arcSize=12;" vertex="1" parent="1">
          <mxGeometry x="30" y="10" width="430" height="510" as="geometry" />
        </mxCell>
        <mxCell id="ikaSYUK2sFAXNSiubt6e-2287" value="" style="rounded=1;whiteSpace=wrap;html=1;strokeColor=none;fillColor=#BAC8D3;fontSize=24;fontColor=#23445D;align=center;opacity=60;arcSize=12;shadow=0;" vertex="1" parent="1">
          <mxGeometry x="660" width="430" height="520" as="geometry" />
        </mxCell>
        <mxCell id="2096" value="" style="shape=mxgraph.cisco.computers_and_peripherals.workstation;html=1;dashed=0;fillColor=#10739E;strokeColor=#ffffff;strokeWidth=2;verticalLabelPosition=bottom;verticalAlign=top;fontFamily=Helvetica;fontSize=36;fontColor=#FFB366" parent="1" vertex="1">
          <mxGeometry x="359.5" y="19" width="83" height="62" as="geometry" />
        </mxCell>
        <mxCell id="2097" value="" style="shape=mxgraph.cisco.servers.fileserver;html=1;dashed=0;fillColor=#10739E;strokeColor=#ffffff;strokeWidth=2;verticalLabelPosition=bottom;verticalAlign=top;fontFamily=Helvetica;fontSize=36;fontColor=#FFB366" parent="1" vertex="1">
          <mxGeometry x="70" y="1202" width="43" height="62" as="geometry" />
        </mxCell>
        <mxCell id="2112" value="" style="shape=mxgraph.cisco.switches.layer_3_switch;html=1;dashed=0;fillColor=#10739E;strokeColor=#ffffff;strokeWidth=2;verticalLabelPosition=bottom;verticalAlign=top;fontFamily=Helvetica;fontSize=36;fontColor=#FFB366" parent="1" vertex="1">
          <mxGeometry x="210" y="210" width="64" height="64" as="geometry" />
        </mxCell>
        <mxCell id="ikaSYUK2sFAXNSiubt6e-2279" style="edgeStyle=orthogonalEdgeStyle;rounded=0;orthogonalLoop=1;jettySize=auto;html=1;exitX=1;exitY=0.5;exitDx=0;exitDy=0;exitPerimeter=0;endArrow=none;startFill=0;" edge="1" parent="1" source="2132" target="ikaSYUK2sFAXNSiubt6e-2259">
          <mxGeometry relative="1" as="geometry" />
        </mxCell>
        <mxCell id="2132" value="" style="shape=mxgraph.cisco.routers.router;html=1;dashed=0;fillColor=#10739E;strokeColor=#ffffff;strokeWidth=2;verticalLabelPosition=bottom;verticalAlign=top;fontFamily=Helvetica;fontSize=36;fontColor=#FFB366" parent="1" vertex="1">
          <mxGeometry x="361" y="450" width="78" height="53" as="geometry" />
        </mxCell>
        <mxCell id="ikaSYUK2sFAXNSiubt6e-2258" value="" style="shape=mxgraph.cisco.routers.router;html=1;dashed=0;fillColor=#10739E;strokeColor=#ffffff;strokeWidth=2;verticalLabelPosition=bottom;verticalAlign=top;fontFamily=Helvetica;fontSize=36;fontColor=#FFB366" vertex="1" parent="1">
          <mxGeometry x="680" y="770" width="78" height="53" as="geometry" />
        </mxCell>
        <mxCell id="ikaSYUK2sFAXNSiubt6e-2259" value="" style="shape=mxgraph.cisco.routers.router;html=1;dashed=0;fillColor=#10739E;strokeColor=#ffffff;strokeWidth=2;verticalLabelPosition=bottom;verticalAlign=top;fontFamily=Helvetica;fontSize=36;fontColor=#FFB366" vertex="1" parent="1">
          <mxGeometry x="680" y="450" width="78" height="53" as="geometry" />
        </mxCell>
        <mxCell id="ikaSYUK2sFAXNSiubt6e-2260" value="" style="shape=mxgraph.cisco.routers.router;html=1;dashed=0;fillColor=#10739E;strokeColor=#ffffff;strokeWidth=2;verticalLabelPosition=bottom;verticalAlign=top;fontFamily=Helvetica;fontSize=36;fontColor=#FFB366" vertex="1" parent="1">
          <mxGeometry x="361" y="770" width="78" height="53" as="geometry" />
        </mxCell>
        <mxCell id="ikaSYUK2sFAXNSiubt6e-2262" style="rounded=0;orthogonalLoop=1;jettySize=auto;html=1;exitX=0.12;exitY=0.1;exitDx=0;exitDy=0;exitPerimeter=0;entryX=0.95;entryY=0.94;entryDx=0;entryDy=0;entryPerimeter=0;endArrow=none;startFill=0;" edge="1" parent="1" source="2132" target="2112">
          <mxGeometry relative="1" as="geometry" />
        </mxCell>
        <mxCell id="ikaSYUK2sFAXNSiubt6e-2265" value="" style="shape=mxgraph.cisco.computers_and_peripherals.workstation;html=1;dashed=0;fillColor=#10739E;strokeColor=#ffffff;strokeWidth=2;verticalLabelPosition=bottom;verticalAlign=top;fontFamily=Helvetica;fontSize=36;fontColor=#FFB366" vertex="1" parent="1">
          <mxGeometry x="50" y="19" width="83" height="62" as="geometry" />
        </mxCell>
        <mxCell id="ikaSYUK2sFAXNSiubt6e-2266" style="rounded=0;orthogonalLoop=1;jettySize=auto;html=1;exitX=1;exitY=0;exitDx=0;exitDy=0;exitPerimeter=0;entryX=0;entryY=1;entryDx=0;entryDy=0;entryPerimeter=0;endArrow=none;startFill=0;" edge="1" parent="1" source="2112" target="2096">
          <mxGeometry relative="1" as="geometry" />
        </mxCell>
        <mxCell id="ikaSYUK2sFAXNSiubt6e-2267" style="rounded=0;orthogonalLoop=1;jettySize=auto;html=1;exitX=0.08;exitY=0.05;exitDx=0;exitDy=0;exitPerimeter=0;entryX=0.815;entryY=1;entryDx=0;entryDy=0;entryPerimeter=0;endArrow=none;startFill=0;" edge="1" parent="1" source="2112" target="ikaSYUK2sFAXNSiubt6e-2265">
          <mxGeometry relative="1" as="geometry" />
        </mxCell>
        <mxCell id="ikaSYUK2sFAXNSiubt6e-2273" value="" style="shape=mxgraph.cisco.computers_and_peripherals.workstation;html=1;dashed=0;fillColor=#10739E;strokeColor=#ffffff;strokeWidth=2;verticalLabelPosition=bottom;verticalAlign=top;fontFamily=Helvetica;fontSize=36;fontColor=#FFB366" vertex="1" parent="1">
          <mxGeometry x="999.5" y="19" width="83" height="62" as="geometry" />
        </mxCell>
        <mxCell id="ikaSYUK2sFAXNSiubt6e-2274" value="" style="shape=mxgraph.cisco.switches.layer_3_switch;html=1;dashed=0;fillColor=#10739E;strokeColor=#ffffff;strokeWidth=2;verticalLabelPosition=bottom;verticalAlign=top;fontFamily=Helvetica;fontSize=36;fontColor=#FFB366" vertex="1" parent="1">
          <mxGeometry x="850" y="210" width="64" height="64" as="geometry" />
        </mxCell>
        <mxCell id="ikaSYUK2sFAXNSiubt6e-2275" value="" style="shape=mxgraph.cisco.computers_and_peripherals.workstation;html=1;dashed=0;fillColor=#10739E;strokeColor=#ffffff;strokeWidth=2;verticalLabelPosition=bottom;verticalAlign=top;fontFamily=Helvetica;fontSize=36;fontColor=#FFB366" vertex="1" parent="1">
          <mxGeometry x="690" y="19" width="83" height="62" as="geometry" />
        </mxCell>
        <mxCell id="ikaSYUK2sFAXNSiubt6e-2276" style="rounded=0;orthogonalLoop=1;jettySize=auto;html=1;exitX=1;exitY=0;exitDx=0;exitDy=0;exitPerimeter=0;entryX=0;entryY=1;entryDx=0;entryDy=0;entryPerimeter=0;endArrow=none;startFill=0;" edge="1" parent="1" source="ikaSYUK2sFAXNSiubt6e-2274" target="ikaSYUK2sFAXNSiubt6e-2273">
          <mxGeometry relative="1" as="geometry" />
        </mxCell>
        <mxCell id="ikaSYUK2sFAXNSiubt6e-2277" style="rounded=0;orthogonalLoop=1;jettySize=auto;html=1;exitX=0.08;exitY=0.05;exitDx=0;exitDy=0;exitPerimeter=0;entryX=0.815;entryY=1;entryDx=0;entryDy=0;entryPerimeter=0;endArrow=none;startFill=0;" edge="1" parent="1" source="ikaSYUK2sFAXNSiubt6e-2274" target="ikaSYUK2sFAXNSiubt6e-2275">
          <mxGeometry relative="1" as="geometry" />
        </mxCell>
        <mxCell id="ikaSYUK2sFAXNSiubt6e-2278" style="rounded=0;orthogonalLoop=1;jettySize=auto;html=1;exitX=0.88;exitY=0.1;exitDx=0;exitDy=0;exitPerimeter=0;entryX=0;entryY=1;entryDx=0;entryDy=0;entryPerimeter=0;endArrow=none;startFill=0;" edge="1" parent="1" source="ikaSYUK2sFAXNSiubt6e-2259" target="ikaSYUK2sFAXNSiubt6e-2274">
          <mxGeometry relative="1" as="geometry" />
        </mxCell>
        <mxCell id="ikaSYUK2sFAXNSiubt6e-2280" style="edgeStyle=orthogonalEdgeStyle;rounded=0;orthogonalLoop=1;jettySize=auto;html=1;exitX=0.5;exitY=1;exitDx=0;exitDy=0;exitPerimeter=0;entryX=0.5;entryY=0;entryDx=0;entryDy=0;entryPerimeter=0;endArrow=none;startFill=0;" edge="1" parent="1" source="ikaSYUK2sFAXNSiubt6e-2259" target="ikaSYUK2sFAXNSiubt6e-2258">
          <mxGeometry relative="1" as="geometry" />
        </mxCell>
        <mxCell id="ikaSYUK2sFAXNSiubt6e-2281" style="edgeStyle=orthogonalEdgeStyle;rounded=0;orthogonalLoop=1;jettySize=auto;html=1;exitX=0;exitY=0.5;exitDx=0;exitDy=0;exitPerimeter=0;entryX=1;entryY=0.5;entryDx=0;entryDy=0;entryPerimeter=0;endArrow=none;startFill=0;" edge="1" parent="1" source="ikaSYUK2sFAXNSiubt6e-2258" target="ikaSYUK2sFAXNSiubt6e-2260">
          <mxGeometry relative="1" as="geometry" />
        </mxCell>
        <mxCell id="ikaSYUK2sFAXNSiubt6e-2282" style="edgeStyle=orthogonalEdgeStyle;rounded=0;orthogonalLoop=1;jettySize=auto;html=1;exitX=0.5;exitY=0;exitDx=0;exitDy=0;exitPerimeter=0;entryX=0.5;entryY=1;entryDx=0;entryDy=0;entryPerimeter=0;endArrow=none;startFill=0;" edge="1" parent="1" source="ikaSYUK2sFAXNSiubt6e-2260" target="2132">
          <mxGeometry relative="1" as="geometry" />
        </mxCell>
        <mxCell id="ikaSYUK2sFAXNSiubt6e-2289" value="" style="shape=mxgraph.cisco.switches.layer_3_switch;html=1;dashed=0;fillColor=#10739E;strokeColor=#ffffff;strokeWidth=2;verticalLabelPosition=bottom;verticalAlign=top;fontFamily=Helvetica;fontSize=36;fontColor=#FFB366" vertex="1" parent="1">
          <mxGeometry x="213" y="1000" width="64" height="64" as="geometry" />
        </mxCell>
        <mxCell id="ikaSYUK2sFAXNSiubt6e-2290" style="rounded=0;orthogonalLoop=1;jettySize=auto;html=1;exitX=0.12;exitY=0.9;exitDx=0;exitDy=0;exitPerimeter=0;entryX=1;entryY=0;entryDx=0;entryDy=0;entryPerimeter=0;endArrow=none;startFill=0;" edge="1" parent="1" source="ikaSYUK2sFAXNSiubt6e-2260" target="ikaSYUK2sFAXNSiubt6e-2289">
          <mxGeometry relative="1" as="geometry" />
        </mxCell>
        <mxCell id="ikaSYUK2sFAXNSiubt6e-2291" value="" style="shape=mxgraph.cisco.switches.layer_3_switch;html=1;dashed=0;fillColor=#10739E;strokeColor=#ffffff;strokeWidth=2;verticalLabelPosition=bottom;verticalAlign=top;fontFamily=Helvetica;fontSize=36;fontColor=#FFB366" vertex="1" parent="1">
          <mxGeometry x="843" y="1000" width="64" height="64" as="geometry" />
        </mxCell>
        <mxCell id="ikaSYUK2sFAXNSiubt6e-2292" style="rounded=0;orthogonalLoop=1;jettySize=auto;html=1;exitX=0.88;exitY=0.9;exitDx=0;exitDy=0;exitPerimeter=0;entryX=0.08;entryY=0.05;entryDx=0;entryDy=0;entryPerimeter=0;endArrow=none;startFill=0;" edge="1" parent="1" source="ikaSYUK2sFAXNSiubt6e-2258" target="ikaSYUK2sFAXNSiubt6e-2291">
          <mxGeometry relative="1" as="geometry" />
        </mxCell>
        <mxCell id="ikaSYUK2sFAXNSiubt6e-2293" value="" style="shape=mxgraph.cisco.servers.fileserver;html=1;dashed=0;fillColor=#10739E;strokeColor=#ffffff;strokeWidth=2;verticalLabelPosition=bottom;verticalAlign=top;fontFamily=Helvetica;fontSize=36;fontColor=#FFB366" vertex="1" parent="1">
          <mxGeometry x="1019.5" y="1202" width="43" height="62" as="geometry" />
        </mxCell>
        <mxCell id="ikaSYUK2sFAXNSiubt6e-2294" style="rounded=0;orthogonalLoop=1;jettySize=auto;html=1;exitX=0;exitY=1;exitDx=0;exitDy=0;exitPerimeter=0;entryX=1;entryY=0;entryDx=0;entryDy=0;entryPerimeter=0;endArrow=none;startFill=0;" edge="1" parent="1" source="ikaSYUK2sFAXNSiubt6e-2289" target="2097">
          <mxGeometry relative="1" as="geometry" />
        </mxCell>
        <mxCell id="ikaSYUK2sFAXNSiubt6e-2295" style="rounded=0;orthogonalLoop=1;jettySize=auto;html=1;exitX=0.95;exitY=0.94;exitDx=0;exitDy=0;exitPerimeter=0;entryX=0.13;entryY=0.08;entryDx=0;entryDy=0;entryPerimeter=0;endArrow=none;startFill=0;" edge="1" parent="1" source="ikaSYUK2sFAXNSiubt6e-2291" target="ikaSYUK2sFAXNSiubt6e-2293">
          <mxGeometry relative="1" as="geometry" />
        </mxCell>
        <mxCell id="ikaSYUK2sFAXNSiubt6e-2297" value="&lt;font style=&quot;font-size: 24px;&quot;&gt;Lübeck&lt;/font&gt;" style="text;html=1;align=center;verticalAlign=middle;whiteSpace=wrap;rounded=0;" vertex="1" parent="1">
          <mxGeometry x="820" y="461.5" width="110" height="30" as="geometry" />
        </mxCell>
        <mxCell id="ikaSYUK2sFAXNSiubt6e-2298" value="&lt;font style=&quot;font-size: 24px;&quot;&gt;Hamburg&lt;/font&gt;" style="text;html=1;align=center;verticalAlign=middle;whiteSpace=wrap;rounded=0;" vertex="1" parent="1">
          <mxGeometry x="187" y="461.5" width="110" height="30" as="geometry" />
        </mxCell>
        <mxCell id="ikaSYUK2sFAXNSiubt6e-2299" value="&lt;font style=&quot;font-size: 24px;&quot;&gt;München&lt;/font&gt;" style="text;html=1;align=center;verticalAlign=middle;whiteSpace=wrap;rounded=0;" vertex="1" parent="1">
          <mxGeometry x="827" y="1250" width="110" height="30" as="geometry" />
        </mxCell>
        <mxCell id="ikaSYUK2sFAXNSiubt6e-2300" value="&lt;font style=&quot;font-size: 24px;&quot;&gt;Berlin&lt;/font&gt;" style="text;html=1;align=center;verticalAlign=middle;whiteSpace=wrap;rounded=0;" vertex="1" parent="1">
          <mxGeometry x="190" y="1250" width="110" height="30" as="geometry" />
        </mxCell>
        <mxCell id="ikaSYUK2sFAXNSiubt6e-2301" style="rounded=0;orthogonalLoop=1;jettySize=auto;html=1;exitX=0.88;exitY=0.9;exitDx=0;exitDy=0;exitPerimeter=0;entryX=0.12;entryY=0.1;entryDx=0;entryDy=0;entryPerimeter=0;endArrow=none;startFill=0;" edge="1" parent="1" source="2132" target="ikaSYUK2sFAXNSiubt6e-2258">
          <mxGeometry relative="1" as="geometry" />
        </mxCell>
        <mxCell id="ikaSYUK2sFAXNSiubt6e-2302" style="rounded=0;orthogonalLoop=1;jettySize=auto;html=1;exitX=0.12;exitY=0.9;exitDx=0;exitDy=0;exitPerimeter=0;entryX=0.88;entryY=0.1;entryDx=0;entryDy=0;entryPerimeter=0;endArrow=none;startFill=0;" edge="1" parent="1" source="ikaSYUK2sFAXNSiubt6e-2259" target="ikaSYUK2sFAXNSiubt6e-2260">
          <mxGeometry relative="1" as="geometry" />
        </mxCell>
      </root>
    </mxGraphModel>
  </diagram>
</mxfile>
